<svg preserveAspectRatio="none" width="100%" height="100%" overflow="visible" style="display: block;" viewBox="0 0 23.9167 28" fill="none" xmlns="http://www.w3.org/2000/svg">
<g id="Color-">
<path id="Apple" fill-rule="evenodd" clip-rule="evenodd" d="M15.8519 4.54561C16.7651 3.36681 17.4574 1.7007 17.207 0C15.7145 0.103721 13.9699 1.05863 12.952 2.30328C12.0241 3.43105 11.2615 5.1087 11.5594 6.73696C13.191 6.788 14.8749 5.81002 15.8519 4.54561ZM23.9167 20.5434C23.2637 21.9988 22.9495 22.6491 22.1083 23.9382C20.9349 25.7377 19.2804 27.9784 17.2282 27.9949C15.4068 28.0146 14.9371 26.8012 12.4643 26.8161C9.99158 26.8292 9.47608 28.0179 7.65137 27.9998C5.60081 27.9817 4.03303 25.9599 2.85965 24.1604C-0.423196 19.1324 -0.768501 13.2302 1.25587 10.0906C2.696 7.86141 4.96748 6.55748 7.10149 6.55748C9.27314 6.55748 10.6396 7.75605 12.4382 7.75605C14.1827 7.75605 15.2448 6.5542 17.7568 6.5542C19.6585 6.5542 21.673 7.59634 23.1066 9.39418C18.4065 11.9856 19.1675 18.7373 23.9167 20.5434Z" fill="var(--fill-0, #0B0B0A)"/>
</g>
</svg>
