<svg preserveAspectRatio="none" width="100%" height="100%" overflow="visible" style="display: block;" viewBox="0 0 16.9302 28.0221" fill="none" xmlns="http://www.w3.org/2000/svg">
<g id="Google">
<path id="Fill-1" fill-rule="evenodd" clip-rule="evenodd" d="M3.54351 14.0111C3.54351 13.101 3.63682 12.2285 3.80337 11.4101L0.88824 7.80418C0.320097 9.67274 0 11.7782 0 14.0111C0 16.242 0.319703 18.3462 0.887059 20.2135L3.80061 16.6006C3.63564 15.786 3.54351 14.9167 3.54351 14.0111Z" fill="var(--fill-0, #FBBC05)"/>
<path id="Fill-2" fill-rule="evenodd" clip-rule="evenodd" d="M8.66186 5.73178C9.8824 5.73178 10.9848 6.43233 11.851 7.57869L14.3708 3.50275C12.8353 1.33742 10.8667 0 8.66186 0C5.23883 0 2.29692 3.17095 0.888183 7.80414L3.80331 11.4101C4.475 8.10728 6.38968 5.73178 8.66186 5.73178Z" fill="var(--fill-0, #EB4335)"/>
<path id="Fill-3" fill-rule="evenodd" clip-rule="evenodd" d="M8.66185 22.2903C6.38968 22.2903 4.475 19.9148 3.80331 16.6121L0.888183 20.2174C2.29692 24.8512 5.23882 28.0221 8.66185 28.0221C10.7746 28.0221 12.7916 26.807 14.3055 24.5302L11.5384 21.065C10.7576 21.8617 9.77452 22.2903 8.66185 22.2903Z" fill="var(--fill-0, #34A853)"/>
<path id="Fill-4" fill-rule="evenodd" clip-rule="evenodd" d="M16.9302 14.011C16.9302 13.183 16.8515 12.2914 16.7334 11.4635H8.66204V16.8768H13.308C13.0757 18.7225 12.4434 20.1414 11.5386 21.0649L14.3057 24.53C15.8959 22.1393 16.9302 18.5779 16.9302 14.011Z" fill="var(--fill-0, #4285F4)"/>
</g>
</svg>
