<svg preserveAspectRatio="none" width="100%" height="100%" overflow="visible" style="display: block;" viewBox="0 0 55.0072 50" fill="none" xmlns="http://www.w3.org/2000/svg">
<g id="Container">
<path id="Icon" d="M30.0625 50C27.5625 50 24.4375 49.6562 20.6875 48.9688C16.9375 48.2812 13.9375 47.0833 11.6875 45.375C10.4375 44.4167 9.125 42.9167 7.75 40.875C6.375 38.8333 5.11458 36.6042 3.96875 34.1875C2.82292 31.7708 1.875 29.3542 1.125 26.9375C0.375 24.5208 0 22.4583 0 20.75C0 17.2083 1.20833 14.3229 3.625 12.0938C6.04167 9.86458 8.625 7.85417 11.375 6.0625C13.875 4.4375 16.6458 3.02083 19.6875 1.8125C22.7292 0.604167 25.875 0 29.125 0C32.375 0 35.3229 0.625 37.9688 1.875C40.6146 3.125 43.25 4.64583 45.875 6.4375C46.5 6.85417 47.3125 7.47917 48.3125 8.3125C49.3125 9.14583 50.3021 10.1875 51.2812 11.4375C52.2604 12.6875 53.1146 14.1562 53.8438 15.8438C54.5729 17.5312 54.9583 19.4583 55 21.625C55.0833 24.7083 54.4479 27.9271 53.0938 31.2812C51.7396 34.6354 49.9062 37.6979 47.5938 40.4688C45.2812 43.2396 42.6042 45.5208 39.5625 47.3125C36.5208 49.1042 33.3542 50 30.0625 50V50M30 45C32.5833 45 35.0938 44.25 37.5312 42.75C39.9688 41.25 42.125 39.3438 44 37.0312C45.875 34.7188 47.3646 32.1979 48.4688 29.4688C49.5729 26.7396 50.0833 24.1667 50 21.75C49.9167 18.875 49.0625 16.5208 47.4375 14.6875C45.8125 12.8542 44.3542 11.5 43.0625 10.625C40.9375 9.16667 38.75 7.86458 36.5 6.71875C34.25 5.57292 31.7917 5 29.125 5C26.375 5 23.6667 5.54167 21 6.625C18.3333 7.70833 15.9167 8.97917 13.75 10.4375C12.125 11.5208 10.25 12.9062 8.125 14.5938C6 16.2812 4.9375 18.25 4.9375 20.5C4.9375 21.8333 5.26042 23.5417 5.90625 25.625C6.55208 27.7083 7.36458 29.7917 8.34375 31.875C9.32292 33.9583 10.375 35.8854 11.5 37.6562C12.625 39.4271 13.6667 40.6667 14.625 41.375C16.125 42.5 18.4375 43.3854 21.5625 44.0312C24.6875 44.6771 27.5 45 30 45V45M23.375 40C25.625 40 27.4792 39.2083 28.9375 37.625C30.3958 36.0417 31.125 34.25 31.125 32.25C31.125 31.3333 30.9375 30.4271 30.5625 29.5312C30.1875 28.6354 29.5833 27.8125 28.75 27.0625C27.8333 26.2292 27.0833 25.3125 26.5 24.3125C25.9167 23.3125 25.4792 22.2083 25.1875 21C24.7708 19.1667 23.8646 17.7083 22.4688 16.625C21.0729 15.5417 19.5 15 17.75 15C15.7083 15 13.9062 15.7812 12.3438 17.3438C10.7812 18.9062 10 20.7083 10 22.75C10 24.375 10.3438 26.1875 11.0312 28.1875C11.7188 30.1875 12.6667 32.0625 13.875 33.8125C15.0833 35.5625 16.5 37.0312 18.125 38.2188C19.75 39.4062 21.5 40 23.375 40V40M23.375 35C22.25 35 21.1875 34.5312 20.1875 33.5938C19.1875 32.6562 18.3021 31.5417 17.5312 30.25C16.7604 28.9583 16.1458 27.6146 15.6875 26.2188C15.2292 24.8229 15 23.6667 15 22.75C15 22.0417 15.2812 21.4062 15.8438 20.8438C16.4062 20.2812 17.0417 20 17.75 20C18.25 20 18.7604 20.1771 19.2812 20.5312C19.8021 20.8854 20.1667 21.4167 20.375 22.125C20.8333 23.875 21.4479 25.4479 22.2188 26.8438C22.9896 28.2396 24.0417 29.5417 25.375 30.75C25.625 30.9583 25.8125 31.2083 25.9375 31.5C26.0625 31.7917 26.125 32.0833 26.125 32.375C26.125 33.0417 25.875 33.6458 25.375 34.1875C24.875 34.7292 24.2083 35 23.375 35V35M38.125 27.5C38.8333 27.5 39.4271 27.2604 39.9062 26.7812C40.3854 26.3021 40.625 25.7083 40.625 25V24.375L41.25 24.6875C41.875 25.0208 42.5104 25.0938 43.1562 24.9062C43.8021 24.7188 44.2917 24.3333 44.625 23.75C45 23.1667 45.1042 22.5312 44.9375 21.8438C44.7708 21.1562 44.375 20.6458 43.75 20.3125L43.125 20L43.75 19.6875C44.375 19.3542 44.7604 18.8542 44.9062 18.1875C45.0521 17.5208 44.9583 16.875 44.625 16.25C44.2917 15.6667 43.8021 15.2917 43.1562 15.125C42.5104 14.9583 41.875 15.0417 41.25 15.375L40.625 15.6875V15C40.625 14.2917 40.3854 13.6979 39.9062 13.2188C39.4271 12.7396 38.8333 12.5 38.125 12.5C37.4167 12.5 36.8229 12.7396 36.3438 13.2188C35.8646 13.6979 35.625 14.2917 35.625 15V15.6875L35.0625 15.375C34.4792 15.0417 33.8542 14.9688 33.1875 15.1562C32.5208 15.3438 32 15.7292 31.625 16.3125C31.2917 16.8958 31.1979 17.5417 31.3438 18.25C31.4896 18.9583 31.8958 19.4583 32.5625 19.75L33.125 20L32.5625 20.375C31.9792 20.75 31.5938 21.2604 31.4062 21.9062C31.2188 22.5521 31.2917 23.1667 31.625 23.75C31.9583 24.375 32.4688 24.7708 33.1562 24.9375C33.8438 25.1042 34.4792 25.0208 35.0625 24.6875L35.625 24.375V25C35.625 25.7083 35.8646 26.3021 36.3438 26.7812C36.8229 27.2604 37.4167 27.5 38.125 27.5V27.5M27.625 25V25V25V25V25V25V25V25V25V25V25V25V25V25V25V25V25V25V25V25" fill="var(--fill-0, #2D6A4F)"/>
</g>
</svg>
